<svg width="150" height="150" viewBox="0 0 150 150" fill="none" xmlns="http://www.w3.org/2000/svg">
<g clip-path="url(#clip0_6_99)">
<path d="M150 117.337V32.6631C150 32.6631 150 0 117.337 0H32.6631C32.6631 0 0 0 0 32.6631V117.337C0 117.337 0 150 32.6631 150H117.28C117.28 150 149.943 150 149.943 117.337M118.247 119.215H91.8437C85.4704 119.215 79.6093 116.939 75 113.24C70.3907 116.995 64.5296 119.215 58.1563 119.215H31.7527V112.045H58.2701C62.7086 112.045 66.8058 110.565 70.1631 108.061C67.0334 103.68 65.1555 98.3308 65.1555 92.5835V91.3885C65.1555 88.8278 65.497 86.3809 66.1798 84.0478C63.676 84.8445 61.0015 85.2428 58.2132 85.2428H31.8096V78.0728H58.327C62.4241 78.0728 66.2936 76.8209 69.4803 74.6017C66.2936 72.4393 62.481 71.1305 58.327 71.1305H31.8096V64.6434H58.2132C61.0015 64.6434 63.676 65.0986 66.1798 65.8384C65.497 63.5053 65.1555 61.0584 65.1555 58.4977V57.3027C65.1555 51.3278 67.1472 45.808 70.5045 41.3695C67.1472 38.7519 62.8794 37.1586 58.327 37.1586H31.8096V30.6715H58.2132C64.5865 30.6715 70.4476 32.8907 75.0569 36.6464C79.6662 32.8907 85.5273 30.6715 91.9006 30.6715H118.304V37.1586H91.7868C87.1775 37.1586 82.9666 38.7519 79.6093 41.3695C82.9666 45.808 84.9583 51.3278 84.9583 57.3027V58.4977C84.9583 61.0584 84.6168 63.5053 83.934 65.8384C86.4378 65.0417 89.1123 64.6434 91.9006 64.6434H118.304V71.1305H91.7868C87.6897 71.1305 83.8202 72.4393 80.6335 74.6017C83.8202 76.764 87.6328 78.0728 91.7868 78.0728H118.304V85.2428H91.9006C89.1123 85.2428 86.4378 84.8445 83.934 84.0478C84.6168 86.3809 84.9583 88.8278 84.9583 91.3885V92.5835C84.9583 98.3308 83.0804 103.68 79.9507 108.061C83.2511 110.565 87.4052 112.045 91.8437 112.045H118.361V119.215H118.247ZM75 102.826C76.9917 99.6965 78.1866 95.9977 78.1866 92.0713V91.1608C78.1866 87.1775 76.9917 83.4788 75 80.4059C73.0083 83.5357 71.8133 87.2344 71.8133 91.1608V92.0713C71.8133 96.0546 73.0083 99.7534 75 102.826ZM75 68.9112C76.9917 65.7815 78.1866 62.0827 78.1866 58.1563V57.2458C78.1866 53.2625 76.9917 49.5637 75 46.4909C73.0083 49.6206 71.8133 53.3194 71.8133 57.2458V58.1563C71.8133 62.1396 73.0083 65.8384 75 68.9112Z" fill="black"/>
</g>
<defs>
<clipPath id="clip0_6_99">
<rect width="150" height="150" fill="white"/>
</clipPath>
</defs>
</svg>
